<svg id="svg" version="1.1" xmlns="http://www.w3.org/2000/svg" xmlns:xlink="http://www.w3.org/1999/xlink" width="400" height="400" viewBox="0, 0, 400,400"><g id="svgg"><path id="path0" d="M114.096 73.102 L 81.992 73.205 82.006 110.502 C 82.019 143.621,81.952 147.814,81.410 147.929 C 80.450 148.133,80.698 148.865,81.700 148.784 C 82.195 148.744,96.926 148.731,114.436 148.756 L 146.272 148.800 146.736 149.819 C 147.384 151.241,147.408 326.432,146.760 327.080 C 145.889 327.951,148.218 328.001,184.819 327.901 C 221.484 327.801,221.800 327.793,221.841 327.000 C 221.863 326.560,221.908 286.387,221.941 237.727 C 222.000 149.631,222.003 149.253,222.800 149.000 C 223.593 148.748,223.600 148.395,223.600 110.977 L 223.600 73.208 184.900 73.104 C 163.615 73.047,131.753 73.046,114.096 73.102 M280.410 73.100 C 276.566 73.166,273.245 73.395,273.030 73.610 C 272.816 73.824,272.059 74.000,271.349 74.000 C 270.638 74.000,269.787 74.270,269.457 74.600 C 269.127 74.930,268.394 75.200,267.829 75.200 C 267.263 75.200,266.800 75.380,266.800 75.600 C 266.800 75.820,266.513 76.000,266.162 76.000 C 265.811 76.000,265.046 76.249,264.462 76.554 C 263.878 76.858,262.725 77.439,261.900 77.845 C 261.075 78.250,260.400 78.721,260.400 78.891 C 260.400 79.061,260.130 79.200,259.800 79.200 C 259.470 79.200,259.200 79.368,259.200 79.573 C 259.200 79.778,258.826 80.065,258.368 80.210 C 257.261 80.561,250.000 87.846,250.000 88.605 C 250.000 88.932,249.841 89.200,249.646 89.200 C 249.451 89.200,248.996 89.822,248.635 90.583 C 248.274 91.344,247.803 92.074,247.589 92.207 C 247.375 92.339,247.200 92.777,247.200 93.181 C 247.200 93.584,246.930 94.018,246.600 94.145 C 246.270 94.271,246.000 94.730,246.000 95.164 C 246.000 95.598,245.820 96.064,245.600 96.200 C 245.380 96.336,245.200 96.947,245.200 97.557 C 245.200 98.167,245.065 98.802,244.900 98.966 C 242.959 100.908,242.928 122.800,244.867 122.800 C 245.050 122.800,245.200 123.430,245.200 124.200 C 245.200 124.970,245.380 125.600,245.600 125.600 C 245.820 125.600,246.000 125.924,246.000 126.320 C 246.000 126.716,246.201 127.241,246.446 127.486 C 246.993 128.033,247.898 129.554,248.240 130.500 C 248.379 130.885,248.652 131.200,248.847 131.200 C 249.041 131.200,249.200 131.455,249.200 131.766 C 249.200 132.077,249.555 132.752,249.989 133.266 C 250.423 133.780,251.405 134.973,252.172 135.917 C 252.938 136.862,254.338 138.269,255.283 139.045 C 256.227 139.821,257.625 140.983,258.389 141.628 C 259.153 142.273,259.922 142.800,260.097 142.800 C 260.272 142.800,261.129 143.250,262.000 143.800 C 262.871 144.350,263.863 144.800,264.205 144.800 C 264.546 144.800,264.929 145.070,265.055 145.400 C 265.182 145.730,265.716 146.000,266.243 146.000 C 266.769 146.000,267.200 146.180,267.200 146.400 C 267.200 146.620,267.794 146.800,268.520 146.800 C 269.246 146.800,270.028 146.988,270.258 147.218 C 271.178 148.138,283.620 149.213,284.537 148.452 C 284.805 148.230,286.321 147.992,287.906 147.924 C 289.741 147.845,290.858 147.619,290.981 147.300 C 291.088 147.025,291.811 146.800,292.587 146.800 C 293.364 146.800,294.000 146.620,294.000 146.400 C 294.000 146.180,294.431 146.000,294.957 146.000 C 295.484 146.000,296.018 145.730,296.145 145.400 C 296.271 145.070,296.741 144.800,297.187 144.800 C 297.634 144.800,298.000 144.640,298.000 144.443 C 298.000 144.247,298.450 143.974,299.000 143.836 C 299.550 143.698,300.000 143.408,300.000 143.192 C 300.000 142.977,300.360 142.800,300.800 142.800 C 301.240 142.800,301.600 142.620,301.600 142.400 C 301.600 142.180,301.765 142.000,301.966 142.000 C 302.314 142.000,303.585 141.030,305.242 139.500 C 305.659 139.115,306.135 138.795,306.300 138.788 C 306.465 138.781,307.410 137.712,308.400 136.412 C 309.390 135.112,310.335 134.037,310.500 134.024 C 310.665 134.011,310.800 133.749,310.800 133.443 C 310.800 133.136,311.070 132.782,311.400 132.655 C 311.730 132.529,312.000 132.149,312.000 131.813 C 312.000 131.476,312.137 131.200,312.305 131.200 C 312.611 131.200,313.333 130.015,313.829 128.700 C 313.974 128.315,314.252 128.000,314.447 128.000 C 314.641 128.000,314.800 127.460,314.800 126.800 C 314.800 126.140,314.964 125.600,315.165 125.600 C 315.366 125.600,315.651 124.880,315.800 124.000 C 315.949 123.120,316.234 122.400,316.435 122.400 C 316.636 122.400,316.800 121.689,316.800 120.820 C 316.800 119.807,317.023 119.115,317.421 118.892 C 318.349 118.373,318.346 103.225,317.418 102.706 C 317.046 102.498,316.800 101.808,316.800 100.975 C 316.800 100.213,316.650 99.277,316.468 98.895 C 316.285 98.513,315.835 97.600,315.468 96.868 C 315.100 96.135,314.800 95.190,314.800 94.768 C 314.800 94.345,314.620 94.000,314.400 94.000 C 314.180 94.000,314.000 93.634,314.000 93.187 C 314.000 92.741,313.730 92.271,313.400 92.145 C 313.070 92.018,312.800 91.656,312.800 91.340 C 312.800 91.024,312.350 90.280,311.800 89.687 C 311.250 89.093,310.800 88.426,310.799 88.204 C 310.799 87.532,304.562 81.312,302.729 80.155 C 301.788 79.561,300.776 78.833,300.480 78.537 C 300.185 78.242,299.686 78.000,299.371 78.000 C 299.057 78.000,298.800 77.820,298.800 77.600 C 298.800 77.380,298.545 77.200,298.232 77.200 C 297.920 77.200,297.065 76.900,296.332 76.532 C 293.869 75.298,293.613 75.200,292.854 75.200 C 292.438 75.200,291.874 74.930,291.600 74.600 C 291.314 74.255,290.442 74.000,289.551 74.000 C 288.439 74.000,288.000 73.830,288.000 73.400 C 288.000 73.070,287.865 72.840,287.700 72.890 C 287.535 72.939,284.255 73.034,280.410 73.100 " stroke="none" fill="#0494fc" fill-rule="evenodd"></path><path id="path1" d="M145.855 72.198 C 146.059 72.731,142.417 72.801,114.143 72.805 C 96.574 72.808,81.795 72.919,81.300 73.052 L 80.400 73.293 80.454 111.547 C 80.484 132.586,80.586 149.406,80.679 148.925 C 80.773 148.443,81.113 147.993,81.435 147.925 C 81.944 147.816,82.019 142.936,82.006 110.500 L 81.992 73.200 114.296 73.196 C 132.063 73.194,163.939 73.196,185.130 73.200 C 221.693 73.207,223.653 73.172,223.525 72.504 C 223.397 71.839,221.255 71.794,184.506 71.698 C 150.024 71.608,145.650 71.664,145.855 72.198 M272.257 73.300 C 272.057 74.070,272.423 74.217,273.030 73.610 C 273.245 73.395,276.564 73.170,280.410 73.109 L 287.400 72.998 279.920 72.799 C 273.035 72.616,272.425 72.656,272.257 73.300 M288.000 73.200 C 288.000 73.732,288.267 74.000,288.796 74.000 C 289.554 74.000,289.559 73.961,288.907 73.200 C 288.530 72.760,288.172 72.400,288.111 72.400 C 288.050 72.400,288.000 72.760,288.000 73.200 M269.000 74.400 C 268.864 74.620,268.348 74.800,267.853 74.800 C 266.714 74.800,264.991 75.967,266.100 75.987 C 266.485 75.994,266.800 75.820,266.800 75.600 C 266.800 75.380,267.263 75.200,267.829 75.200 C 268.394 75.200,269.127 74.930,269.457 74.600 C 269.787 74.270,269.875 74.000,269.652 74.000 C 269.429 74.000,269.136 74.180,269.000 74.400 M291.600 74.600 C 291.874 74.930,292.515 75.200,293.025 75.200 C 293.535 75.200,294.064 75.380,294.200 75.600 C 294.336 75.820,294.752 75.994,295.124 75.987 C 296.223 75.967,294.454 74.800,293.324 74.800 C 292.816 74.800,292.400 74.620,292.400 74.400 C 292.400 74.180,292.108 74.000,291.751 74.000 C 291.220 74.000,291.192 74.109,291.600 74.600 M263.266 76.593 C 262.753 76.876,262.168 77.308,261.966 77.554 C 261.709 77.868,261.742 77.881,262.080 77.600 C 262.344 77.380,262.839 77.194,263.180 77.187 C 263.521 77.180,264.149 76.910,264.576 76.587 C 265.554 75.848,264.611 75.852,263.266 76.593 M296.624 76.587 C 297.051 76.910,297.715 77.180,298.100 77.187 C 298.485 77.194,298.800 77.380,298.800 77.600 C 298.800 77.820,298.974 78.000,299.187 78.000 C 299.401 78.000,299.471 77.730,299.345 77.400 C 299.218 77.070,298.784 76.800,298.381 76.800 C 297.977 76.800,297.536 76.620,297.400 76.400 C 297.264 76.180,296.859 76.000,296.500 76.000 C 295.952 76.000,295.972 76.095,296.624 76.587 M260.000 78.314 C 260.000 78.486,259.415 78.964,258.700 79.376 C 256.781 80.481,248.800 88.683,248.800 89.550 C 248.800 89.761,248.665 89.993,248.500 90.067 C 247.898 90.334,246.054 94.354,246.635 94.131 C 246.946 94.012,247.200 93.584,247.200 93.181 C 247.200 92.777,247.375 92.339,247.589 92.207 C 247.803 92.074,248.274 91.344,248.635 90.583 C 248.996 89.822,249.451 89.200,249.646 89.200 C 249.841 89.200,250.000 88.932,250.000 88.605 C 250.000 87.846,257.261 80.561,258.368 80.210 C 258.826 80.065,259.200 79.778,259.200 79.573 C 259.200 79.368,259.393 79.200,259.629 79.200 C 259.864 79.200,260.327 78.930,260.657 78.600 C 261.190 78.067,261.187 78.000,260.629 78.000 C 260.283 78.000,260.000 78.141,260.000 78.314 M300.480 78.537 C 301.572 79.629,304.377 81.206,304.143 80.596 C 304.017 80.268,303.726 80.000,303.495 80.000 C 303.264 80.000,302.486 79.550,301.764 79.000 C 300.360 77.928,299.596 77.654,300.480 78.537 M308.366 85.295 C 309.705 86.667,310.800 87.974,310.800 88.199 C 310.800 88.424,311.250 89.093,311.800 89.687 C 312.350 90.280,312.800 91.024,312.800 91.340 C 312.800 91.656,313.049 92.010,313.354 92.127 C 313.993 92.372,313.083 90.222,312.358 89.774 C 312.143 89.641,312.078 89.183,312.214 88.756 C 312.349 88.329,312.294 88.029,312.091 88.090 C 311.888 88.150,310.550 86.985,309.118 85.500 C 307.686 84.015,306.384 82.800,306.224 82.800 C 306.063 82.800,307.028 83.923,308.366 85.295 M314.006 93.300 C 314.003 93.685,314.180 94.000,314.400 94.000 C 314.620 94.000,314.806 94.405,314.813 94.900 C 314.820 95.395,315.090 96.149,315.413 96.576 C 315.988 97.337,316.000 97.336,316.000 96.500 C 316.000 96.031,315.803 95.525,315.562 95.377 C 315.322 95.228,315.206 94.683,315.305 94.165 C 315.409 93.621,315.321 93.325,315.097 93.463 C 314.885 93.595,314.553 93.454,314.361 93.151 C 314.085 92.715,314.011 92.746,314.006 93.300 M245.335 95.786 C 245.079 96.064,244.805 96.721,244.725 97.246 C 244.646 97.771,244.372 98.159,244.117 98.109 C 243.804 98.047,243.726 98.466,243.878 99.401 C 244.030 100.338,243.885 101.116,243.429 101.812 C 242.704 102.918,242.517 120.222,243.234 119.779 C 243.647 119.524,244.165 122.193,243.858 122.992 C 243.725 123.339,243.833 123.550,244.114 123.495 C 244.394 123.440,244.652 123.937,244.723 124.666 C 244.831 125.779,246.000 126.989,246.000 125.987 C 246.000 125.774,245.820 125.600,245.600 125.600 C 245.380 125.600,245.200 124.970,245.200 124.200 C 245.200 123.430,245.050 122.800,244.867 122.800 C 242.928 122.800,242.959 100.908,244.900 98.966 C 245.065 98.802,245.200 98.193,245.200 97.613 C 245.200 97.034,245.413 96.347,245.673 96.087 C 245.934 95.826,246.069 95.538,245.973 95.447 C 245.878 95.356,245.591 95.508,245.335 95.786 M316.084 98.200 C 316.229 99.111,317.239 99.283,317.519 98.444 C 317.639 98.082,317.531 97.996,317.207 98.196 C 316.925 98.370,316.548 98.264,316.334 97.951 C 316.048 97.533,315.988 97.593,316.084 98.200 M316.860 100.876 C 316.803 102.280,317.350 103.183,317.915 102.618 C 318.059 102.474,317.973 102.231,317.725 102.077 C 317.476 101.923,317.193 101.258,317.096 100.599 C 316.934 99.495,316.915 99.517,316.860 100.876 M318.157 111.000 C 318.160 113.420,318.227 114.815,318.306 114.100 C 318.451 112.793,318.982 112.369,319.309 113.300 C 319.405 113.575,319.488 112.450,319.493 110.800 C 319.497 109.150,319.418 108.025,319.317 108.300 C 318.999 109.164,318.459 108.845,318.303 107.700 C 318.221 107.095,318.155 108.580,318.157 111.000 M317.067 119.067 C 316.920 119.213,316.825 119.978,316.854 120.767 C 316.896 121.859,316.952 121.962,317.088 121.200 C 317.187 120.650,317.432 120.029,317.634 119.820 C 318.340 119.087,317.785 118.349,317.067 119.067 M315.800 124.000 C 315.651 124.880,315.366 125.600,315.165 125.600 C 314.964 125.600,314.825 126.185,314.854 126.900 C 314.901 128.001,314.937 128.047,315.095 127.200 C 315.197 126.650,315.473 126.080,315.708 125.934 C 315.943 125.788,316.168 125.248,316.207 124.734 C 316.246 124.220,316.415 123.485,316.582 123.100 C 316.759 122.693,316.715 122.400,316.478 122.400 C 316.254 122.400,315.949 123.120,315.800 124.000 M246.000 127.520 C 246.000 127.784,246.180 128.000,246.400 128.000 C 246.620 128.000,246.800 128.338,246.800 128.751 C 246.800 129.164,247.083 129.737,247.428 130.023 C 247.773 130.310,247.974 130.856,247.874 131.238 C 247.759 131.678,247.968 132.003,248.446 132.128 C 248.921 132.252,249.200 132.117,249.200 131.763 C 249.200 131.453,249.041 131.200,248.847 131.200 C 248.652 131.200,248.379 130.885,248.240 130.500 C 247.611 128.758,246.000 126.616,246.000 127.520 M313.273 129.687 C 313.013 129.947,312.800 130.379,312.800 130.647 C 312.800 130.914,312.575 131.214,312.300 131.312 C 312.025 131.410,311.923 131.623,312.073 131.785 C 312.498 132.243,313.200 131.635,313.200 130.810 C 313.200 130.401,313.425 129.986,313.700 129.888 C 313.975 129.790,314.098 129.598,313.973 129.461 C 313.849 129.325,313.534 129.426,313.273 129.687 M311.300 132.665 C 311.025 132.776,310.800 133.107,310.800 133.400 C 310.800 133.693,310.665 133.993,310.500 134.067 C 310.107 134.242,306.695 138.400,306.945 138.400 C 307.334 138.400,310.400 135.155,310.400 134.742 C 310.400 134.507,310.661 134.414,310.980 134.537 C 311.369 134.686,311.485 134.567,311.335 134.175 C 311.211 133.853,311.333 133.322,311.604 132.995 C 312.125 132.368,312.101 132.342,311.300 132.665 M249.500 133.065 C 249.775 133.176,250.000 133.522,250.000 133.833 C 250.000 134.145,250.180 134.400,250.400 134.400 C 250.620 134.400,250.800 134.567,250.800 134.772 C 250.800 134.976,251.467 135.831,252.283 136.672 C 253.099 137.512,253.504 137.825,253.183 137.367 C 251.063 134.341,249.790 132.804,249.423 132.832 C 249.190 132.849,249.225 132.954,249.500 133.065 M254.000 138.155 C 254.000 138.494,256.587 140.943,257.528 141.494 C 258.237 141.910,258.334 141.895,258.142 141.394 C 258.017 141.067,257.786 140.800,257.629 140.800 C 257.472 140.800,256.592 140.156,255.672 139.369 C 254.752 138.582,254.000 138.036,254.000 138.155 M305.600 139.167 C 305.600 139.369,304.970 139.924,304.200 140.400 C 303.430 140.876,302.814 141.476,302.832 141.733 C 302.853 142.055,302.926 142.045,303.065 141.700 C 303.176 141.425,303.479 141.200,303.737 141.200 C 304.190 141.200,306.400 139.361,306.400 138.984 C 306.400 138.883,306.220 138.800,306.000 138.800 C 305.780 138.800,305.600 138.965,305.600 139.167 M259.063 142.619 C 259.185 142.939,259.626 143.200,260.043 143.200 C 260.459 143.200,260.800 143.380,260.800 143.600 C 260.800 143.820,261.076 144.000,261.413 144.000 C 261.749 144.000,262.129 144.270,262.255 144.600 C 262.382 144.930,262.880 145.200,263.363 145.200 C 263.845 145.200,264.456 145.416,264.720 145.680 C 265.093 146.053,265.200 146.051,265.200 145.667 C 265.200 145.397,264.885 145.077,264.500 144.958 C 263.686 144.706,263.262 144.496,260.720 143.083 C 259.451 142.378,258.912 142.227,259.063 142.619 M301.600 142.400 C 301.600 142.620,301.240 142.800,300.800 142.800 C 300.360 142.800,300.000 142.977,300.000 143.192 C 300.000 143.408,299.550 143.698,299.000 143.836 C 298.450 143.974,298.000 144.235,298.000 144.416 C 298.000 144.596,297.609 144.802,297.131 144.872 C 296.654 144.942,296.174 145.270,296.066 145.600 C 295.898 146.114,295.965 146.121,296.533 145.653 C 296.897 145.352,297.557 145.200,297.998 145.315 C 298.537 145.456,298.800 145.329,298.800 144.925 C 298.800 144.595,299.160 144.231,299.600 144.116 C 300.040 144.001,300.400 143.748,300.400 143.553 C 300.400 143.359,300.741 143.200,301.157 143.200 C 301.574 143.200,302.018 142.930,302.145 142.600 C 302.271 142.270,302.201 142.000,301.987 142.000 C 301.774 142.000,301.600 142.180,301.600 142.400 M266.655 146.600 C 266.790 146.951,267.389 147.200,268.099 147.200 C 268.766 147.200,269.516 147.479,269.766 147.821 C 270.116 148.300,270.445 148.351,271.210 148.046 C 272.150 147.671,272.156 147.649,271.324 147.625 C 270.842 147.611,270.336 147.420,270.200 147.200 C 270.064 146.980,269.333 146.800,268.576 146.800 C 267.819 146.800,267.200 146.620,267.200 146.400 C 267.200 146.180,267.026 146.000,266.813 146.000 C 266.599 146.000,266.529 146.270,266.655 146.600 M294.000 146.400 C 294.000 146.620,293.364 146.800,292.587 146.800 C 291.751 146.800,291.088 147.027,290.962 147.356 C 290.839 147.676,290.378 147.842,289.874 147.748 C 289.045 147.592,289.041 147.603,289.800 147.964 C 290.940 148.506,291.616 148.480,291.500 147.900 C 291.441 147.603,291.915 147.350,292.670 147.277 C 293.869 147.161,295.486 146.000,294.449 146.000 C 294.202 146.000,294.000 146.180,294.000 146.400 M274.800 148.624 C 276.190 148.994,278.620 149.187,281.400 149.148 C 283.820 149.114,286.160 149.236,286.600 149.418 C 287.299 149.708,287.334 149.668,286.877 149.106 C 286.427 148.552,286.483 148.437,287.277 148.285 C 287.828 148.180,287.548 148.087,286.580 148.054 C 285.689 148.025,284.767 148.193,284.531 148.429 C 284.121 148.839,279.535 148.755,274.600 148.246 L 272.600 148.040 274.800 148.624 M113.725 149.100 C 144.193 149.199,146.045 149.245,145.979 149.902 C 145.405 155.552,146.104 327.999,146.700 327.994 C 147.245 327.989,147.280 327.912,146.857 327.644 C 146.479 327.404,146.449 327.217,146.757 327.026 C 147.408 326.624,147.386 151.247,146.736 149.819 L 146.272 148.800 113.836 148.898 L 81.400 148.995 113.725 149.100 M222.504 149.127 C 221.944 149.483,221.541 328.000,222.100 328.000 C 222.265 328.000,222.400 287.914,222.400 238.920 C 222.400 179.271,222.533 149.973,222.802 150.242 C 223.069 150.509,223.169 180.273,223.102 239.122 C 223.046 287.785,223.135 327.600,223.300 327.600 C 223.465 327.600,223.600 287.370,223.600 238.200 C 223.600 189.030,223.465 148.803,223.300 148.806 C 223.135 148.809,222.777 148.954,222.504 149.127 " stroke="none" fill="#049cfc" fill-rule="evenodd"></path><path id="path2" d="M80.661 72.185 C 80.537 72.509,80.562 72.825,80.717 72.887 C 81.795 73.318,146.045 72.734,145.898 72.295 C 145.629 71.486,80.971 71.377,80.661 72.185 M272.800 72.200 C 272.800 72.739,273.770 72.803,280.401 72.709 C 285.129 72.641,288.001 72.449,288.001 72.200 C 288.001 71.951,285.129 71.759,280.401 71.691 C 273.770 71.597,272.800 71.661,272.800 72.200 M268.779 73.025 C 268.517 73.341,267.694 73.600,266.951 73.600 C 266.030 73.600,265.600 73.787,265.600 74.187 C 265.600 74.521,265.363 74.684,265.052 74.564 C 264.750 74.449,264.223 74.634,263.880 74.977 C 263.537 75.320,263.019 75.606,262.729 75.613 C 262.438 75.620,261.858 75.884,261.441 76.200 C 261.024 76.516,260.527 76.679,260.338 76.562 C 260.149 76.445,259.886 76.631,259.754 76.975 C 259.622 77.319,259.264 77.600,258.957 77.600 C 258.651 77.600,258.400 77.889,258.400 78.243 C 258.400 78.621,258.176 78.800,257.855 78.676 C 257.339 78.478,253.600 81.544,253.600 82.165 C 253.600 82.502,252.562 83.600,252.243 83.600 C 251.776 83.600,248.454 87.364,248.646 87.674 C 248.759 87.857,248.569 88.114,248.225 88.246 C 247.881 88.378,247.600 88.717,247.600 89.000 C 247.600 89.283,247.310 89.626,246.955 89.762 C 246.545 89.919,246.385 90.301,246.517 90.805 C 246.652 91.320,246.527 91.600,246.163 91.600 C 245.836 91.600,245.600 92.001,245.600 92.557 C 245.600 93.084,245.318 93.623,244.972 93.755 C 244.555 93.915,244.430 94.265,244.599 94.798 C 244.783 95.377,244.672 95.600,244.202 95.600 C 243.707 95.600,243.580 95.914,243.675 96.900 C 243.823 98.433,244.539 98.635,244.740 97.200 C 244.818 96.650,245.009 96.110,245.165 96.000 C 245.321 95.890,246.068 94.540,246.824 93.000 C 247.581 91.460,248.335 90.140,248.500 90.067 C 248.665 89.993,248.800 89.761,248.800 89.550 C 248.800 88.683,256.781 80.481,258.700 79.376 C 259.415 78.964,260.000 78.486,260.000 78.314 C 260.000 78.141,260.349 78.000,260.776 78.000 C 261.203 78.000,261.661 77.825,261.793 77.611 C 261.926 77.397,262.701 76.930,263.517 76.575 C 264.333 76.219,265.478 75.674,266.062 75.364 C 266.646 75.054,267.465 74.800,267.882 74.800 C 268.299 74.800,268.811 74.633,269.020 74.429 C 269.229 74.224,270.029 73.999,270.797 73.929 C 271.702 73.845,272.237 73.570,272.317 73.147 C 272.480 72.285,269.479 72.182,268.779 73.025 M288.800 73.057 C 288.800 73.637,289.737 74.000,291.233 74.000 C 291.875 74.000,292.400 74.180,292.400 74.400 C 292.400 74.620,292.777 74.800,293.238 74.800 C 293.699 74.800,294.644 75.096,295.338 75.457 C 297.655 76.664,297.986 76.800,298.595 76.800 C 298.928 76.800,299.200 76.986,299.200 77.213 C 299.200 77.439,299.515 77.741,299.900 77.883 C 300.285 78.025,301.157 78.559,301.838 79.071 C 302.519 79.582,303.190 80.000,303.329 80.000 C 303.468 80.000,305.478 81.900,307.795 84.223 C 310.911 87.347,312.070 88.284,312.246 87.826 C 312.406 87.407,311.493 86.228,309.442 84.203 C 307.769 82.551,306.400 81.020,306.400 80.800 C 306.400 80.580,306.245 80.400,306.055 80.400 C 305.865 80.400,305.243 79.934,304.674 79.365 C 304.104 78.795,303.448 78.447,303.216 78.590 C 302.984 78.733,302.686 78.569,302.554 78.225 C 302.422 77.881,302.053 77.600,301.734 77.600 C 301.414 77.600,301.261 77.425,301.393 77.212 C 301.525 76.998,301.175 76.709,300.616 76.568 C 300.057 76.428,299.600 76.153,299.600 75.957 C 299.600 75.760,299.144 75.600,298.587 75.600 C 298.031 75.600,297.476 75.341,297.354 75.025 C 297.233 74.709,296.908 74.537,296.631 74.643 C 296.354 74.750,295.897 74.558,295.615 74.218 C 295.333 73.878,294.513 73.600,293.794 73.600 C 293.006 73.600,292.395 73.364,292.258 73.007 C 291.984 72.293,288.801 72.340,288.800 73.057 M312.184 88.825 C 312.040 89.059,312.173 89.554,312.481 89.925 C 312.788 90.296,313.387 91.275,313.811 92.100 C 314.652 93.736,315.088 93.956,315.478 92.942 C 315.627 92.552,315.459 92.086,315.065 91.798 C 314.699 91.531,314.400 91.051,314.400 90.731 C 314.400 89.603,312.640 88.089,312.184 88.825 M315.200 94.205 C 315.200 94.538,315.369 95.123,315.576 95.505 C 315.783 95.887,316.059 96.708,316.191 97.328 C 316.502 98.800,317.364 98.504,317.525 96.869 C 317.618 95.931,317.487 95.600,317.025 95.600 C 316.625 95.600,316.400 95.240,316.400 94.600 C 316.400 93.978,316.173 93.600,315.800 93.600 C 315.470 93.600,315.200 93.872,315.200 94.205 M242.555 98.973 C 242.420 99.324,242.402 99.963,242.514 100.391 C 242.626 100.820,242.466 101.379,242.159 101.634 C 241.244 102.393,241.343 119.567,242.260 119.432 C 242.853 119.345,242.912 118.490,242.834 111.094 C 242.759 104.032,242.840 102.710,243.402 101.853 C 244.133 100.738,244.072 98.751,243.300 98.498 C 243.025 98.407,242.690 98.621,242.555 98.973 M317.338 98.900 C 316.973 99.491,317.148 101.713,317.583 102.000 C 317.750 102.110,317.999 103.622,318.137 105.360 C 318.403 108.723,318.619 109.331,319.216 108.388 C 319.865 107.361,319.691 102.010,319.000 101.745 C 318.609 101.595,318.400 100.972,318.400 99.957 C 318.400 98.411,317.930 97.942,317.338 98.900 M318.254 114.656 C 318.114 115.677,318.000 117.119,318.000 117.861 C 318.000 118.604,317.845 119.523,317.656 119.905 C 316.912 121.411,315.975 124.836,316.206 125.210 C 316.341 125.428,316.169 125.714,315.825 125.846 C 315.481 125.978,315.200 126.516,315.200 127.043 C 315.200 127.569,315.023 128.000,314.808 128.000 C 314.592 128.000,314.302 128.450,314.164 129.000 C 314.026 129.550,313.753 130.000,313.557 130.000 C 313.360 130.000,313.197 130.315,313.193 130.700 C 313.189 131.085,312.739 131.824,312.193 132.342 C 311.129 133.351,310.880 134.400,311.704 134.400 C 312.234 134.400,314.164 132.273,314.250 131.595 C 314.278 131.378,314.322 131.020,314.350 130.800 C 314.378 130.580,314.681 130.400,315.024 130.400 C 315.367 130.400,315.556 130.252,315.444 130.071 C 315.332 129.891,315.502 129.240,315.820 128.626 C 316.139 128.011,316.400 127.336,316.400 127.126 C 316.400 126.915,316.670 126.473,317.000 126.143 C 317.330 125.813,317.600 125.106,317.600 124.571 C 317.600 124.037,317.780 123.600,318.000 123.600 C 318.220 123.600,318.400 122.957,318.400 122.171 C 318.400 121.386,318.681 120.462,319.025 120.118 C 319.925 119.218,319.738 112.800,318.812 112.800 C 318.645 112.800,318.394 113.635,318.254 114.656 M242.910 119.932 C 242.423 120.233,242.415 122.949,242.900 123.433 C 243.383 123.916,244.000 123.136,243.972 122.076 C 243.930 120.490,243.480 119.580,242.910 119.932 M243.754 123.777 C 243.436 124.605,244.462 128.047,245.100 128.293 C 245.375 128.399,245.606 128.781,245.613 129.143 C 245.629 129.933,246.953 131.600,247.564 131.600 C 248.201 131.600,248.096 130.578,247.400 130.000 C 247.070 129.726,246.800 129.164,246.800 128.751 C 246.800 128.338,246.620 128.000,246.400 128.000 C 246.180 128.000,246.000 127.634,246.000 127.187 C 246.000 126.741,245.730 126.271,245.400 126.145 C 245.062 126.015,244.800 125.419,244.800 124.781 C 244.800 123.491,244.115 122.834,243.754 123.777 M247.600 132.732 C 247.600 133.135,248.050 133.706,248.600 134.000 C 249.150 134.294,249.600 134.881,249.600 135.303 C 249.600 136.074,254.873 141.600,255.608 141.600 C 255.824 141.600,256.000 141.780,256.000 142.000 C 256.000 142.220,256.360 142.400,256.800 142.400 C 257.240 142.400,257.600 142.605,257.600 142.856 C 257.600 143.457,258.828 144.371,259.657 144.387 C 260.019 144.394,260.418 144.670,260.545 145.000 C 260.671 145.330,261.141 145.600,261.587 145.600 C 262.034 145.600,262.400 145.780,262.400 146.000 C 262.400 146.220,262.828 146.400,263.351 146.400 C 263.874 146.400,264.526 146.670,264.800 147.000 C 265.074 147.330,265.636 147.600,266.049 147.600 C 266.462 147.600,266.800 147.780,266.800 148.000 C 266.800 148.220,267.408 148.400,268.151 148.400 C 268.906 148.400,269.738 148.685,270.037 149.045 C 270.460 149.555,271.015 149.638,272.686 149.441 C 274.414 149.238,274.800 149.303,274.800 149.797 C 274.800 150.307,275.696 150.400,280.600 150.400 C 285.489 150.400,286.400 150.306,286.400 149.800 C 286.400 149.082,286.443 149.087,281.400 149.187 C 278.846 149.238,276.388 149.032,274.600 148.616 C 273.060 148.257,271.391 148.067,270.891 148.192 C 270.288 148.343,269.904 148.215,269.748 147.810 C 269.604 147.435,269.009 147.200,268.200 147.200 C 267.401 147.200,266.795 146.965,266.655 146.600 C 266.529 146.270,266.070 146.000,265.636 146.000 C 265.202 146.000,264.736 145.820,264.600 145.600 C 264.464 145.380,263.933 145.200,263.419 145.200 C 262.906 145.200,262.382 144.930,262.255 144.600 C 262.129 144.270,261.749 144.000,261.413 144.000 C 261.076 144.000,260.800 143.820,260.800 143.600 C 260.800 143.380,260.539 143.200,260.221 143.200 C 259.902 143.200,259.156 142.750,258.562 142.200 C 257.969 141.650,257.337 141.200,257.158 141.200 C 256.684 141.200,250.800 135.280,250.800 134.803 C 250.800 134.581,250.620 134.400,250.400 134.400 C 250.180 134.400,250.000 134.222,250.000 134.005 C 250.000 133.396,248.685 132.000,248.111 132.000 C 247.830 132.000,247.600 132.330,247.600 132.732 M310.400 134.789 C 310.400 135.282,304.368 141.200,303.866 141.200 C 303.660 141.200,303.075 141.650,302.565 142.200 C 302.055 142.750,301.360 143.200,301.019 143.200 C 300.679 143.200,300.400 143.359,300.400 143.553 C 300.400 143.748,300.040 144.001,299.600 144.116 C 298.667 144.360,298.510 145.600,299.413 145.600 C 299.749 145.600,300.129 145.330,300.255 145.000 C 300.382 144.670,300.916 144.400,301.443 144.400 C 301.969 144.400,302.400 144.220,302.400 144.000 C 302.400 143.780,302.670 143.600,303.000 143.600 C 303.330 143.600,303.600 143.330,303.600 143.000 C 303.600 142.667,303.956 142.400,304.400 142.400 C 304.840 142.400,305.200 142.220,305.200 142.000 C 305.200 141.780,305.470 141.600,305.800 141.600 C 306.130 141.600,306.400 141.360,306.400 141.068 C 306.400 140.775,306.850 140.294,307.400 140.000 C 307.950 139.706,308.400 139.225,308.400 138.932 C 308.400 138.640,308.681 138.400,309.024 138.400 C 309.367 138.400,309.536 138.220,309.400 138.000 C 309.264 137.780,309.433 137.600,309.776 137.600 C 310.119 137.600,310.400 137.395,310.400 137.144 C 310.400 136.893,310.699 136.469,311.065 136.202 C 311.459 135.914,311.627 135.448,311.478 135.058 C 311.206 134.350,310.400 134.149,310.400 134.789 M296.600 145.600 C 296.464 145.820,296.025 146.000,295.625 146.000 C 295.225 146.000,294.683 146.260,294.419 146.577 C 294.156 146.894,293.369 147.209,292.670 147.277 C 291.865 147.355,291.441 147.596,291.511 147.934 C 291.594 148.328,291.314 148.401,290.445 148.210 C 288.618 147.809,286.264 148.355,286.839 149.046 C 287.464 149.800,290.564 149.767,291.200 149.000 C 291.474 148.670,292.306 148.400,293.049 148.400 C 293.792 148.400,294.400 148.220,294.400 148.000 C 294.400 147.780,294.850 147.600,295.400 147.600 C 296.022 147.600,296.400 147.373,296.400 147.000 C 296.400 146.627,296.778 146.400,297.400 146.400 C 298.022 146.400,298.400 146.173,298.400 145.800 C 298.400 145.131,296.987 144.974,296.600 145.600 M80.652 149.410 C 80.513 149.770,80.400 150.141,80.400 150.233 C 80.400 150.325,94.845 150.400,112.500 150.400 L 144.600 150.400 144.497 238.813 L 144.395 327.225 145.273 328.413 L 146.150 329.600 184.875 329.600 L 223.600 329.600 223.600 328.600 C 223.600 328.050,223.465 327.600,223.300 327.600 C 223.135 327.600,223.046 287.785,223.102 239.122 C 223.169 180.273,223.069 150.509,222.802 150.242 C 222.533 149.973,222.400 179.271,222.400 238.920 L 222.400 328.000 184.200 328.000 L 146.000 328.000 145.954 239.300 C 145.929 190.515,145.940 150.285,145.979 149.900 C 146.046 149.239,144.287 149.200,114.058 149.200 C 96.462 149.200,81.804 149.100,81.484 148.977 C 81.158 148.852,80.793 149.042,80.652 149.410 " stroke="none" fill="#04abfc" fill-rule="evenodd"></path><path id="path3" d="" stroke="none" fill="#048cfc" fill-rule="evenodd"></path><path id="path4" d="" stroke="none" fill="#0894fc" fill-rule="evenodd"></path></g></svg>