<?xml version="1.0" standalone="no"?>
<!DOCTYPE svg PUBLIC "-//W3C//DTD SVG 20010904//EN"
 "http://www.w3.org/TR/2001/REC-SVG-20010904/DTD/svg10.dtd">
<svg version="1.0" xmlns="http://www.w3.org/2000/svg"
 width="600.000000pt" height="600.000000pt" viewBox="0 0 600.000000 600.000000"
 preserveAspectRatio="xMidYMid meet">

<g transform="translate(0.000000,600.000000) scale(0.100000,-0.100000)"
fill="#000000" stroke="none">
<path d="M2512 5428 c-16 -4 -45 -22 -65 -40 -24 -22 -286 -438 -775 -1233
-406 -660 -949 -1541 -1206 -1957 l-467 -758 172 -252 c264 -387 385 -554 419
-578 74 -52 -44 -50 2365 -50 2028 0 2247 2 2296 16 45 13 66 29 129 93 112
116 582 658 602 694 26 49 23 115 -10 178 -31 60 -519 818 -1357 2109 -302
465 -672 1036 -823 1270 -150 234 -286 438 -300 454 -56 60 -56 60 -524 61
-236 0 -441 -3 -456 -7z m795 -125 c-90 -149 -1707 -2820 -1805 -2981 -78
-128 -142 -235 -142 -237 0 -3 477 -6 1059 -7 l1059 -3 43 -30 c33 -23 56 -54
102 -140 32 -60 101 -175 153 -254 52 -79 94 -147 94 -152 0 -5 -802 -9 -1846
-9 -1675 0 -1846 1 -1840 16 13 33 287 491 542 905 982 1595 1735 2802 1772
2843 51 54 57 55 450 56 200 0 361 -3 359 -7z m614 -828 c622 -967 1230 -1904
1598 -2464 161 -244 301 -461 311 -482 24 -47 25 -99 4 -142 -10 -18 -69 -88
-133 -157 -64 -69 -188 -210 -275 -313 l-159 -188 -52 88 c-29 48 -273 462
-542 918 -270 457 -634 1071 -809 1365 -174 294 -345 581 -378 638 -33 56 -63
102 -66 102 -19 -2 -277 -396 -873 -1336 -80 -126 -159 -243 -174 -259 -54
-54 -62 -55 -453 -55 -198 0 -360 2 -360 4 0 3 210 351 466 773 257 422 659
1085 894 1473 235 388 442 729 460 758 27 44 35 51 45 40 7 -7 230 -350 496
-763z m-721 -1910 l231 -360 -457 -3 c-251 -1 -459 0 -462 2 -2 3 96 170 218
371 123 202 226 363 231 358 4 -4 112 -170 239 -368z"/>
</g>
</svg>
